# xmcd CD database file
#
# Track frame offsets:
#	182
#	10927
#	26625
#	37530
#	50272
#	63747
#	79487
#	90750
#	109212
#	121775
#
# Disc length: 1788 seconds
#
# Revision: 1
# Processed by: cddbd v1.5.2PL0 Copyright (c) Steve Scherf et al.
# Submitted via: CDex 1.51
#
DISCID=6f06fa0a
DTITLE=Ronnie McDowell - The Best Of Ronnie McDowell
DYEAR=1990
DGENRE=Classic Country
TTITLE0=It's Only Make Believe
TTITLE1=I Love You, I Love You, I Love You
TTITLE2=Sheet Music
TTITLE3=I'm Still Missing You
TTITLE4=All Tied Up
TTITLE5=Since I Don't Have You
TTITLE6=She's A Little Past Forty
TTITLE7=The King Is Gone
TTITLE8=American Music
TTITLE9=Watchin' Girls Go By
EXTD=YEAR: 1990
EXTT0=
EXTT1=
EXTT2=
EXTT3=
EXTT4=
EXTT5=
EXTT6=
EXTT7=
EXTT8=
EXTT9=
PLAYORDER=
